<svg role="img" viewBox="0 0 24 24" xmlns="http://www.w3.org/2000/svg"><title>Nebula</title><path d="m1.1 10.3 1.551 2.335h.248V10.3h.816v3.398H2.61l-1.545-2.328H.817v2.328H0v-3.398h1.1Zm6.705 0v.687H5.347v.638h1.896v.635H5.347v.753h2.458v.686H4.53v-3.398h3.275Zm2.976 0c.162 0 .31.015.442.044a.962.962 0 0 1 .343.14.653.653 0 0 1 .222.26.91.91 0 0 1 .078.4c0 .17-.04.314-.116.428a.848.848 0 0 1-.346.28c.21.06.366.166.469.317.103.15.155.332.155.545a.87.87 0 0 1-.369.752c-.113.08-.241.138-.385.176a1.73 1.73 0 0 1-.446.057H8.622v-3.398h2.159Zm-.095 1.377a.54.54 0 0 0 .328-.096c.086-.063.129-.166.129-.309a.394.394 0 0 0-.044-.195.315.315 0 0 0-.114-.12.476.476 0 0 0-.164-.059 1.076 1.076 0 0 0-.193-.016h-1.19v.795h1.248Zm.043 1.441c.072 0 .142-.007.209-.021a.513.513 0 0 0 .176-.072.36.36 0 0 0 .122-.135.472.472 0 0 0 .045-.22c0-.174-.05-.298-.148-.373a.63.63 0 0 0-.39-.112H9.439v.933h1.29Zm4.981.214c-.293.245-.698.367-1.215.367-.525 0-.931-.121-1.22-.364-.287-.243-.43-.617-.43-1.124v-1.91h.816v1.91c0 .1.01.2.027.297a.59.59 0 0 0 .114.257.624.624 0 0 0 .242.182c.103.047.277.07.45.07.304 0 .55-.064.666-.194.116-.13.173-.334.173-.612v-1.91h.817v1.91c0 .503-.146.877-.44 1.121Zm2.072-.32v-2.711h-.816v3.398h2.643l.284-.686h-2.11Zm5.37.687H24l-1.425-3.398h-1.084l-1.438 3.398h.822l.338-.818h1.608l.331.818Zm-1.68-1.442.43-1.04h.246l.42 1.04h-1.097Z"/></svg>